<svg viewBox="0 0 640 400" data-background-color="#212529" preserveAspectRatio="xMidYMid meet" height="400" width="640" xmlns="http://www.w3.org/2000/svg" xmlns:xlink="http://www.w3.org/1999/xlink"><rect width="640" height="400" x="0" y="0" opacity="1" fill="#212529" data-fill-palette-color="background" id="background"></rect><g id="tight-bounds" transform="matrix(1,0,0,1,188.82439968709258,76.4)"><svg viewBox="0 0 262.35120062581484 247.2" height="247.2" width="262.35120062581484"><g><svg viewBox="0 0 262.35120062581484 247.2" height="247.2" width="262.35120062581484"><g><svg viewBox="0 0 262.35120062581484 247.2" height="247.2" width="262.35120062581484"><g><svg viewBox="0 0 262.35120062581484 247.2" height="247.2" width="262.35120062581484"><g><svg viewBox="0 0 262.35120062581484 247.2" height="247.2" width="262.35120062581484"><path d="M261.737 53.02C260.504 27.36 256.989 20.227 256.989 20.227 246.197-6.202 232.728-0.506 220.629 3.292 199.267 3.446 177.991 9.091 156.679 12.119 111.944 12.581 66.828 4.986 22.315 23.717 18.134 29.464-4.338 24.846 0.744 56.304 2.076 69.39 6.935 83.913 6.787 95.922 7.453 98.026 8.378 93.202 8.773 96.23 10.154 104.39 12.411 100.541 14.261 105.365 11.684 118.246 13.534 128.971 15.297 140.21 12.189 143.135 8.206 141.749 6.417 151.449 6.232 158.479 5.233 157.145 4.135 156.837 3.334 156.632 1.718 157.402 1.989 159.608 2.914 167.152-1.057 171.514 1.434 178.904-0.28 186.91 2.618 193.838 2.224 202.511 2.174 204.255 2.446 205.744 2.877 206.154 4.789 208.361 2.002 212.672 2.298 217.342 21.908 249.262 43.184 227.195 63.276 241.872 68.493 231.608 64.571 245.516 66.655 243.36 68.283 240.846 69.467 251.263 71.305 245.362 71.588 243.668 71.157 239.665 72.168 240.435 72.698 240.846 73.167 240.743 73.241 238.382 73.352 234.841 72.378 237.048 72.119 235.201 74.919 225.861 74.228 248.081 76.855 247.158 76.732 244.438 75.967 240.538 77.533 241.051 79.087 237.151 79.137 233.918 80.518 242.693 80.567 244.592 80.814 245.926 81.209 246.85 85.526 237.305 89.818 250.237 94.344 245.926 97.119 241.205 99.783 248.492 102.595 246.696 103.582 245.259 104.581 242.693 105.531 247.004 117.161 247.928 129.557 244.079 140.583 247.158 170.048 241.41 201.536 249.518 232.605 241.923 239.931 238.998 247.541 234.841 254.682 231.506 254.682 231.506 260.467 222.371 260.467 181.316S261.7 145.393 261.885 112.703C262.07 80.013 262.933 78.679 261.7 53.02Z" opacity="1" fill="#f3a83c" data-fill-palette-color="tertiary"></path><g transform="matrix(1,0,0,1,55.76831999999999,26.230666666666668)"><svg width="150.81456062581486" viewBox="0.30000001192092896 -37.5 29.700000762939453 38.349998474121094" height="194.73866666666666" data-palette-color="#ffffff"><path d="M16-19.15L11.9 0 4.7 0 11.5-31.8 18.9-32.8 16.55-21.7 16.85-21.7Q19.65-21.7 21.85-24.25 24.05-26.8 24.05-29.8L24.05-29.8Q24.05-32.3 22.33-33.75 20.6-35.2 17.45-35.2L17.45-35.2Q12.2-35.2 8.58-31.85 4.95-28.5 4.95-23.05L4.95-23.05Q4.95-22.1 5.08-21.4 5.2-20.7 5.5-20.05L5.5-20.05Q5.6-19.85 5.63-19.78 5.65-19.7 5.65-19.65L5.65-19.65Q2.95-19.65 1.63-20.8 0.3-21.95 0.3-24.25L0.3-24.25Q0.3-26.95 2.02-29.55 3.75-32.15 6.8-34.1L6.8-34.1Q9.3-35.75 12.33-36.63 15.35-37.5 18.45-37.5L18.45-37.5Q23.35-37.5 26.23-35.3 29.1-33.1 29.1-29.55L29.1-29.55Q29.1-27.2 27.75-25.05 26.4-22.9 24.1-21.6L24.1-21.6Q26.95-21.05 28.48-18.93 30-16.8 30-13.55L30-13.55Q30-11.2 29.3-8.6 28.6-6 27.35-4L27.35-4Q25.85-1.6 23.75-0.38 21.65 0.85 19.05 0.85L19.05 0.85Q16.7 0.85 15.4-0.1 14.1-1.05 14.1-2.85L14.1-2.85Q14.1-3.45 14.25-4.17 14.4-4.9 14.75-5.75L14.75-5.75Q15.7-4.8 16.48-4.38 17.25-3.95 18.1-3.95L18.1-3.95Q20.35-3.95 21.7-6.55 23.05-9.15 23.05-12.95L23.05-12.95Q23.05-16.1 21.85-17.7 20.65-19.3 18.3-19.3L18.3-19.3Q17.95-19.3 17.28-19.25 16.6-19.2 16-19.15L16-19.15Z" opacity="1" transform="matrix(1,0,0,1,0,0)" fill="#ffffff" class="undefined-text-0" data-fill-palette-color="quaternary" id="text-0"></path></svg></g></svg></g></svg></g></svg></g><g></g></svg></g></svg><rect width="262.35120062581484" height="247.2" fill="none" stroke="none" visibility="hidden"></rect></g><defs></defs></svg>